{"title":"The Taking of Pelham 123 2009 DVDrip English KLam","uid":6459108,"size":1575960513,"categoryP":"video","categoryS":"movies","magnet":"?xt=urn:btih:244e8bed81e8f4cc088651aa4fff8b088671a46e&amp;dn=The+Taking+of+Pelham+123+2009+DVDrip+English+KLam&amp;tr=udp%3A%2F%2Ftracker.openbittorrent.com%3A80&amp;tr=udp%3A%2F%2Fopen.demonii.com%3A1337&amp;tr=udp%3A%2F%2Ftracker.coppersurfer.tk%3A6969&amp;tr=udp%3A%2F%2Fexodus.desync.com%3A6969","seeders":2,"leechers":0,"uploader":"Klambake","files":-1,"time":1307695234,"description":"With: Denzel Washington, John Travolta and James Gandolfini\n\nEen groep terroristen onder leiding van Ryder (John Travolta) kaapt de New Yorkse metro 'Pelham 1 2 3' en eist een enorme som losgeld, namelijk 10 miljoen dollar. Ryder wil dit bedrag binnen een uur in zijn bezit hebben...\n\nArmed men hijack a New York City subway train, holding the passengers hostage in return for a ransom, and turning an ordinary day's work for dispatcher Walter Garber into a face-off with the mastermind behind the crime. \n\n------------------ Dutch Friends ------------------\n\nYou can find my Friends at: http://www.Film-Test.nl \n                    \n------ They got my dutchs subs ---- and more ------\n\nGeneral:\n\nComplete name                    : The Taking of Pelham 123\\The Taking Of Pelham 123.avi\nFormat                           : AVI\nFormat/Info                      : Audio Video Interleave\nFile size                        : 1.47 GiB\nDuration                         : 1h 41mn\nOverall bit rate                 : 2 067 Kbps\n\nVideo:\n\nFormat                           : MPEG-4 Visual\nFormat profile                   : Simple@L3\nFormat settings, BVOP            : No\nFormat settings, QPel            : No\nFormat settings, GMC             : No warppoints\nFormat settings, Matrix          : Default (H.263)\nCodec ID                         : XVID\nCodec ID/Hint                    : XviD\nDuration                         : 1h 41mn\nBit rate                         : 1 608 Kbps\nWidth                            : 720 pixels\nHeight                           : 304 pixels\nDisplay aspect ratio             : 2.35:1\nFrame rate                       : 25.000 fps\nColor space                      : YUV\nChroma subsampling               : 4:2:0\nBit depth                        : 8 bits\nScan type                        : Progressive\nBits/(Pixel*Frame)               : 0.294\nStream size                      : 1.14 GiB (78%)\nWriting library                  : XviD 1.1.2 (UTC 2006-11-01)\n\nAudio:\n\nFormat                           : AC-3\nFormat/Info                      : Audio Coding 3\nMode extension                   : CM (complete main)\nCodec ID                         : 2000\nDuration                         : 1h 41mn\nBit rate mode                    : Constant\nBit rate                         : 448 Kbps\nChannel(s)                       : 6 channels\nChannel positions                : Front: L C R, Side: L R, LFE\nSampling rate                    : 48.0 KHz\nBit depth                        : 16 bits\nStream size                      : 325 MiB (22%)\nAlignment                        : Aligned on interleaves\nInterleave, duration             : 32 ms (0.80 video frame)\nInterleave, preload duration     : 672 ms\n\n","torrent":{"xt":"urn:btih:244e8bed81e8f4cc088651aa4fff8b088671a46e","amp;dn":"The+Taking+of+Pelham+123+2009+DVDrip+English+KLam","amp;tr":["udp%3A%2F%2Ftracker.openbittorrent.com%3A80","udp%3A%2F%2Fopen.demonii.com%3A1337","udp%3A%2F%2Ftracker.coppersurfer.tk%3A6969","udp%3A%2F%2Fexodus.desync.com%3A6969"],"infoHash":"244e8bed81e8f4cc088651aa4fff8b088671a46e","infoHashBuffer":{"type":"Buffer","data":[36,78,139,237,129,232,244,204,8,134,81,170,79,255,139,8,134,113,164,110]},"announce":[],"urlList":[]}}